<?xml version="1.0" standalone="no"?>
<!DOCTYPE svg PUBLIC "-//W3C//DTD SVG 20010904//EN"
 "http://www.w3.org/TR/2001/REC-SVG-20010904/DTD/svg10.dtd">
<svg version="1.0" xmlns="http://www.w3.org/2000/svg"
 width="846.000000pt" height="846.000000pt" viewBox="0 0 846.000000 846.000000"
 preserveAspectRatio="xMidYMid meet">
<metadata>
Created by potrace 1.11, written by Peter Selinger 2001-2013
</metadata>
<g transform="translate(0.000000,846.000000) scale(0.100000,-0.100000)"
fill="#000000" stroke="none">
<path d="M1250 6192 c0 -4 -15 -8 -32 -9 -18 -1 -44 -4 -58 -7 -14 -2 -43 -7
-64 -11 -53 -9 -199 -61 -261 -93 -27 -14 -52 -26 -55 -27 -3 0 -45 -27 -95
-59 -110 -71 -280 -240 -350 -346 -27 -41 -50 -77 -50 -80 0 -3 -10 -21 -23
-41 -12 -20 -22 -39 -22 -41 0 -3 -10 -27 -22 -54 -12 -27 -21 -52 -20 -56 1
-5 -2 -8 -6 -8 -5 0 -9 -6 -9 -12 0 -7 -10 -49 -21 -93 -39 -150 -48 -320 -24
-470 8 -49 15 -98 15 -107 1 -10 6 -18 11 -18 5 0 7 -2 4 -6 -10 -9 58 -204
74 -215 5 -3 9 -9 9 -13 -2 -10 43 -101 51 -104 4 -2 8 -12 8 -23 0 -10 5 -19
10 -19 6 0 10 -5 10 -12 0 -11 579 -1177 590 -1188 3 -3 29 -53 58 -112 86
-174 194 -311 347 -438 50 -41 193 -132 215 -135 3 0 15 -6 27 -13 28 -15 142
-56 213 -75 52 -14 87 -21 170 -32 51 -7 238 -7 285 0 102 15 190 35 235 52 8
4 19 5 24 4 4 -1 14 3 21 9 7 6 23 13 36 15 12 3 26 10 31 17 4 7 8 9 8 4 0
-5 7 -3 15 4 8 7 15 9 15 6 0 -4 12 1 28 12 15 10 47 29 72 41 25 13 47 26 50
30 3 3 32 26 65 50 60 44 197 180 500 497 88 91 189 197 225 234 253 261 302
322 376 466 91 175 137 369 135 569 -2 115 -2 115 -12 170 -4 28 -10 62 -12
77 -1 15 -6 30 -10 34 -4 4 -7 17 -7 28 0 29 -43 145 -86 234 -57 118 -132
221 -234 322 -134 134 -233 197 -510 323 -57 26 -51 24 -77 32 -13 4 -23 12
-23 17 0 5 -5 6 -11 3 -5 -4 -18 0 -27 8 -9 9 -20 16 -24 17 -4 0 -25 8 -45
17 -21 9 -40 17 -43 18 -3 1 -32 14 -65 30 -33 15 -62 29 -65 30 -3 1 -30 13
-60 27 -80 38 -174 81 -180 83 -3 0 -26 11 -53 22 -26 12 -48 22 -50 22 -1 -1
-25 11 -53 25 -29 14 -56 26 -62 26 -5 0 -15 7 -22 15 -6 8 -15 14 -18 13 -9
-2 -47 14 -131 54 -37 16 -91 41 -121 55 -30 13 -75 34 -100 45 -138 63 -177
79 -252 103 -46 15 -94 28 -108 30 -14 1 -25 4 -25 5 0 1 -9 3 -20 5 -11 1
-38 6 -60 10 -57 9 -255 15 -255 7z"/>
<path d="M6040 5027 c-37 -12 -116 -86 -117 -109 0 -7 -5 -31 -10 -53 -5 -22
-9 -112 -8 -200 1 -132 5 -166 20 -195 21 -41 68 -86 92 -89 94 -10 144 5 166
51 15 32 26 26 29 -16 1 -14 7 -27 13 -29 21 -6 130 -1 128 6 -1 3 2 20 7 37
5 17 5 30 0 30 -5 0 -5 12 -2 28 4 15 6 41 5 57 -5 51 -4 87 1 92 2 3 1 16 -4
29 -5 13 -5 26 -1 29 5 3 7 14 4 25 -5 18 -14 20 -117 20 l-112 0 2 -57 c2
-74 0 -71 27 -69 30 1 35 -41 7 -76 -18 -24 -24 -26 -50 -16 -17 5 -30 16 -30
24 0 8 -5 14 -11 14 -5 0 -7 5 -4 11 11 16 12 69 3 75 -5 3 -5 10 -1 16 8 14
8 109 0 131 -4 10 -3 17 1 17 4 0 8 14 8 32 1 34 25 58 52 53 9 -2 20 -4 23
-4 10 -2 29 -51 29 -75 0 -21 3 -22 82 -21 78 2 83 3 88 26 8 29 -11 106 -34
140 -29 45 -89 71 -174 74 -42 2 -93 -2 -112 -8z"/>
<path d="M4524 4713 c0 -175 3 -320 7 -323 6 -4 301 -3 337 2 6 1 12 5 12 10
0 5 5 6 10 3 6 -3 10 -1 10 4 0 6 5 11 11 11 13 0 48 41 49 57 0 6 5 13 10 15
14 4 20 93 9 131 -10 36 -45 75 -79 89 l-25 10 25 10 c38 14 63 56 68 114 6
68 -2 97 -34 129 -48 49 -69 53 -245 54 l-165 2 0 -318z m271 144 c17 -40 10
-55 -29 -65 -43 -11 -75 -4 -71 16 2 10 4 33 4 52 1 35 1 36 42 32 35 -4 43
-9 54 -35z m2 -223 c8 -8 11 -14 7 -14 -3 0 -2 -6 4 -12 15 -18 -12 -78 -35
-79 -10 0 -27 -2 -38 -4 -10 -2 -24 0 -30 5 -11 9 -12 101 -1 119 9 14 75 4
93 -15z"/>
<path d="M5059 5023 c0 -5 -1 -149 -2 -320 -1 -201 2 -314 8 -316 9 -2 318 -1
355 2 12 1 15 14 14 64 -1 34 -3 67 -3 72 -1 6 -41 10 -100 9 l-100 -1 0 53
c0 49 3 54 22 55 12 0 53 1 92 2 l70 2 0 68 c0 38 -4 68 -10 68 -5 1 -41 3
-80 4 -38 1 -76 3 -83 4 -8 1 -11 16 -10 48 l3 48 97 -1 97 0 0 73 0 73 -185
0 c-101 0 -184 -3 -185 -7z"/>
<path d="M5514 4713 c0 -175 3 -320 7 -323 4 -3 83 -5 176 -4 l168 0 2 58 c1
32 4 64 7 72 6 15 0 16 -114 16 -36 0 -67 3 -70 8 -3 4 -5 117 -4 249 l0 241
-86 0 -86 0 0 -317z"/>
<path d="M6449 5028 c0 -2 -2 -146 -2 -321 -1 -205 2 -317 8 -318 40 -5 149
-3 158 3 6 4 10 43 10 98 l0 91 35 -3 c31 -3 37 -7 44 -33 4 -16 14 -59 23
-95 l17 -65 81 1 c45 1 86 3 90 3 4 1 3 10 -3 21 -6 11 -8 20 -6 20 3 0 -1 18
-9 40 -8 22 -14 42 -15 45 0 3 -1 7 -1 10 -1 3 -3 10 -4 15 -1 6 -3 11 -5 13
-1 1 -3 11 -5 22 -2 11 -7 32 -10 46 -5 18 1 41 16 70 26 50 30 67 29 124 -2
114 -32 164 -123 203 -23 10 -325 19 -328 10z m257 -158 c1 0 7 -13 13 -30 7
-21 7 -30 -1 -30 -7 0 -7 -4 0 -13 14 -17 -13 -73 -39 -80 -45 -12 -56 1 -57
69 0 35 -4 68 -7 74 -10 16 27 28 59 19 17 -5 32 -9 32 -9z"/>
<path d="M6989 5023 c0 -5 -1 -149 -2 -320 -2 -272 0 -313 13 -314 85 -7 360
-2 361 6 4 41 -3 130 -10 134 -5 3 -49 6 -98 5 -89 -1 -108 6 -94 35 4 9 6 28
5 44 -3 30 -8 28 132 29 l51 0 -3 66 c-1 37 -2 69 -3 72 0 3 -36 5 -78 5 -43
-1 -83 0 -90 3 -7 2 -11 22 -10 50 l2 47 95 0 95 0 5 40 c3 22 3 55 1 73 l-3
32 -184 0 c-101 0 -184 -3 -185 -7z"/>
<path d="M7500 4918 c-13 -62 -25 -117 -25 -123 -1 -5 -3 -12 -4 -15 -2 -3 -4
-14 -6 -25 -2 -11 -6 -33 -10 -50 -7 -36 -13 -65 -20 -102 -3 -16 -8 -36 -11
-45 -3 -10 -7 -29 -10 -43 -2 -14 -6 -37 -10 -52 -3 -16 -7 -39 -10 -53 l-5
-26 85 1 c47 1 88 4 91 7 4 3 9 21 11 40 3 18 7 38 9 44 4 13 115 16 134 5 7
-4 14 -25 17 -46 3 -22 7 -41 10 -44 9 -9 169 -6 176 3 3 5 2 16 -2 25 -5 9
-14 43 -19 76 -6 33 -13 71 -15 85 -24 109 -29 138 -32 155 -2 11 -6 31 -9 45
-4 14 -8 34 -10 45 -15 82 -28 142 -33 150 -4 6 -5 20 -3 33 2 22 2 22 -137
22 l-139 0 -23 -112z m173 -103 c3 -22 8 -51 11 -65 3 -14 8 -48 11 -75 l5
-50 -45 3 -46 4 6 37 c31 203 46 240 58 146z"/>
<path d="M7889 4988 c-2 -24 -3 -57 -1 -74 l3 -31 64 2 c51 1 66 -2 69 -14 2
-9 3 -121 2 -248 -1 -154 2 -233 9 -234 43 -5 143 -3 156 2 11 6 15 20 13 53
-1 25 -5 50 -8 55 -4 5 -3 12 1 14 7 4 9 194 3 222 -1 6 -1 15 0 20 1 6 3 37
4 69 l1 59 65 1 65 1 3 73 3 72 -225 0 -224 0 -3 -42z"/>
<path d="M5557 4080 c-71 -13 -139 -66 -154 -122 -8 -29 -9 -126 -1 -154 17
-61 67 -94 180 -120 75 -18 98 -36 92 -72 -6 -34 -17 -44 -46 -46 -28 -3 -58
21 -58 46 0 19 -5 20 -97 20 -70 0 -80 -5 -77 -39 1 -15 3 -28 4 -28 1 0 3
-10 6 -23 5 -28 50 -80 86 -98 14 -7 51 -16 82 -18 31 -3 61 -8 66 -11 6 -4
10 -2 10 3 0 5 10 8 23 7 54 -4 132 51 160 114 22 51 26 145 7 182 -27 51 -80
91 -140 104 -118 26 -148 47 -128 91 9 20 18 24 46 22 28 -2 37 -8 46 -30 10
-28 12 -28 94 -28 l83 0 -3 43 c-2 23 -13 57 -23 75 -37 61 -159 100 -258 82z"/>
<path d="M4526 4070 c-1 -3 -2 -147 -2 -320 l1 -315 62 -5 c110 -9 108 -12
110 119 1 62 4 119 7 127 4 10 25 12 81 11 42 -1 79 1 81 4 2 4 5 36 6 71 l2
63 -84 1 -85 0 -5 30 c-3 16 -4 39 -2 52 4 21 9 22 96 22 l92 0 -1 72 0 73
-178 0 c-98 0 -180 -2 -181 -5z"/>
<path d="M4949 4075 c-1 0 -3 -145 -4 -323 l-1 -323 187 1 188 2 0 72 0 72
-92 -1 c-51 -1 -97 0 -103 2 -5 2 -10 27 -9 56 l1 52 90 0 89 0 5 60 c3 33 4
65 2 72 -3 8 -30 12 -86 11 -45 -1 -86 1 -92 5 -6 3 -10 25 -9 49 l1 43 100 5
99 5 -1 50 c-3 102 19 90 -184 91 -99 0 -181 -1 -181 -1z"/>
<path d="M5879 4065 c0 -5 -1 -39 -2 -74 l-1 -65 71 2 71 1 0 -232 c0 -127 1
-240 1 -249 1 -16 12 -18 86 -18 l85 0 0 250 0 250 70 0 70 0 0 73 0 72 -225
0 c-143 0 -225 -4 -226 -10z"/>
<path d="M6385 4070 c-1 -3 -3 -148 -3 -322 l0 -317 80 -3 c95 -4 95 -3 94
100 -1 43 3 72 9 72 7 0 7 3 0 8 -12 8 -13 61 -3 78 4 6 4 14 0 18 -4 4 -7 89
-7 189 l0 182 -83 0 c-46 1 -85 -2 -87 -5z"/>
<path d="M6607 4037 c6 -43 7 -52 16 -87 6 -22 11 -53 22 -116 2 -16 19 -99
30 -149 1 -5 5 -28 9 -50 4 -22 11 -60 17 -85 11 -54 17 -90 18 -107 1 -10 35
-13 136 -13 150 0 135 -7 150 75 6 39 22 121 30 165 4 19 9 44 11 55 1 11 5
29 7 40 3 11 8 40 13 65 4 25 8 47 9 50 1 3 5 25 9 50 5 25 10 54 12 65 2 11
7 34 10 51 l6 30 -86 -1 c-47 0 -87 -3 -90 -5 -4 -5 -14 -58 -22 -125 -2 -22
-7 -55 -10 -73 -3 -18 -7 -54 -10 -80 -5 -46 -11 -87 -14 -87 -1 0 -3 -20 -6
-45 -5 -50 -24 -79 -25 -39 0 13 -2 31 -4 39 -7 28 -14 65 -19 110 -4 25 -8
56 -11 70 -5 28 -15 100 -20 145 -2 17 -4 32 -5 35 -4 8 -7 24 -8 41 -2 13
-17 15 -91 15 l-90 -1 6 -38z"/>
<path d="M7225 4069 c-2 -3 -6 -16 -9 -30 -13 -67 -56 -272 -70 -334 -9 -38
-18 -81 -20 -95 -2 -14 -12 -58 -21 -98 -9 -40 -15 -75 -13 -77 5 -6 168 -9
173 -3 2 2 7 24 10 48 3 24 7 45 9 47 4 5 137 6 141 1 1 -1 5 -19 8 -39 2 -20
8 -42 11 -48 4 -7 41 -11 93 -11 l86 0 -7 38 c-10 62 -24 127 -26 127 -1 0 -3
9 -4 20 -2 11 -8 45 -15 75 -14 68 -18 88 -25 135 -4 20 -8 40 -10 44 -3 3 -7
25 -10 47 -4 23 -11 56 -16 74 -5 18 -9 35 -8 39 1 3 -1 15 -5 26 -7 20 -15
21 -138 21 -72 -1 -132 -3 -134 -7z m151 -226 c7 -43 16 -98 19 -123 l6 -46
-38 2 c-21 1 -41 2 -46 3 -4 0 -5 13 -2 29 3 15 8 43 11 62 2 19 8 49 11 65 9
40 10 46 11 74 3 41 13 16 28 -66z"/>
<path d="M7669 4061 c0 -24 0 -561 0 -601 l1 -35 175 3 c197 3 177 -7 177 87
0 63 -1 63 -27 60 -14 -1 -25 3 -25 9 0 7 -3 7 -8 1 -6 -8 -61 -12 -108 -6 -6
0 -11 13 -11 29 -1 15 -1 38 -2 52 0 14 -1 86 -1 160 0 74 0 140 0 145 0 6 1
29 3 53 2 24 -2 46 -7 50 -6 3 -46 7 -88 7 -64 1 -78 -1 -79 -14z"/>
</g>
</svg>
